<?xml version="1.0" encoding="utf-8"?>
<!-- Svg Vector Icons : http://www.onlinewebfonts.com/icon -->
<!DOCTYPE svg PUBLIC "-//W3C//DTD SVG 1.1//EN" "http://www.w3.org/Graphics/SVG/1.1/DTD/svg11.dtd">
<svg x="0px" y="0px" viewBox="0 0 1000 1000" enable-background="new 0 0 1000 1000" xml:space="preserve">
<g><g transform="translate(0.000000,511.000000) scale(0.100000,-0.100000)"><path d="M2749.1,4996.6c-417.1-67.5-756.7-254.2-1159.9-641.5c-442.9-427-697.1-879.8-824.2-1469.7c-57.6-274.1-61.6-858-7.9-1155.9c115.2-637.5,389.3-1300.9,711-1731.8c87.4-119.2,121.1-184.7,152.9-301.9c55.6-208.5,113.2-679.2,149-1243.3c67.5-1010.9,95.3-1360.4,131.1-1652.4c91.4-709,230.4-1112.2,466.7-1346.5c226.4-228.4,552.1-284,842.1-145c127.1,59.6,295.9,240.3,383.3,403.2c145,280,212.5,524.3,383.3,1360.4C4197-1833.3,4334-1460,4576.3-1291.2c148.9,103.3,383.3,71.5,478.6-63.6c91.4-127.1,113.2-264.1,111.2-699.1c-2-335.6-13.9-494.5-65.5-903.6c-107.3-826.2-105.3-1249.2,5.9-1489.5c131.1-280,454.8-409.1,782.5-309.8c389.3,117.2,758.7,538.2,1136,1296.9c335.6,675.3,669.3,1622.6,893.7,2540.1c53.6,220.4,65.5,250.2,123.1,295.9c607.7,472.7,1026.8,1146,1189.6,1906.6c65.6,301.9,65.6,869.9,0,1171.8c-139,649.4-464.7,1263.1-935.4,1755.7c-252.2,264.1-538.2,434.9-883.8,528.3c-204.6,55.6-703,77.5-967.2,39.7c-379.3-51.6-810.3-184.7-1221.4-377.3l-202.6-95.3l-214.5,129.1c-407.1,244.3-840.1,427-1217.4,514.4C3354.9,5004.6,2943.8,5026.4,2749.1,4996.6z M3354.9,4371c615.7-107.2,1441.9-589.9,2210.5-1290.9c99.3-89.4,198.6-172.8,222.4-186.7c69.5-35.8,226.4-25.8,299.9,17.9c105.3,63.6,147,149,137,284c-5.9,113.2-9.9,117.2-150.9,260.2c-79.4,79.5-218.5,206.6-309.8,282c-91.4,75.5-166.8,141-166.8,148.9c-2,19.9,401.2,160.9,633.5,220.4c301.9,79.4,707,99.3,945.3,45.7c357.5-77.5,593.8-244.3,875.9-625.6c341.6-458.8,524.3-899.7,583.9-1412.1c97.3-852-313.8-1753.7-1054.6-2309.8c-71.5-51.7-145-119.2-162.9-148.9c-17.9-27.8-55.6-154.9-85.4-280C7017.1-2030,6397.5-3527.4,5932.7-4002.1c-109.2-111.2-230.4-190.7-254.2-166.8c-37.7,37.7-6,655.4,55.6,1132c81.4,633.5,101.3,1213.5,51.7,1497.5c-95.3,540.2-387.3,848-869.9,915.6C4522.7-568.2,4145.3-739,3911-1084.6c-234.4-341.6-365.4-748.7-572-1773.5c-123.1-611.7-184.7-854-268.1-1054.6c-208.5-502.5-407.1-202.6-532.3,806.3c-41.7,337.6-77.5,760.7-131.1,1608.7c-51.6,798.4-125.1,1273.1-236.3,1545.1C2145.4,113,2064,250,1990.5,351.3c-254.2,353.5-478.6,883.8-579.9,1366.4c-71.5,339.6-75.5,808.3-9.9,1090.3c115.2,496.5,387.3,927.5,798.4,1259.2C2564.4,4363.1,2898.1,4450.5,3354.9,4371z"/></g></g>
</svg>
